<svg xmlns="http://www.w3.org/2000/svg" viewBox="0 0 250 190" width="500" height="380"><rect width="250" height="190" fill="#ffffff"/><rect x="210" y="150" width="10" height="10" fill="#c9ddf8"/><rect x="170" y="70" width="10" height="10" fill="#c9ddf8"/><rect x="130" y="140" width="10" height="10" fill="#c9ddf8"/><rect x="130" y="30" width="10" height="10" fill="#c9ddf8"/><rect x="90" y="80" width="10" height="10" fill="#c9ddf8"/><rect x="120" y="170" width="10" height="10" fill="#c9ddf8"/><rect x="190" y="50" width="10" height="10" fill="#c9ddf8"/><rect x="170" y="90" width="10" height="10" fill="#c9ddf8"/><rect x="230" y="110" width="10" height="10" fill="#c9ddf8"/><rect x="170" y="130" width="10" height="10" fill="#c9ddf8"/><rect x="140" y="150" width="10" height="10" fill="#c9ddf8"/><rect x="230" y="150" width="10" height="10" fill="#c9ddf8"/><rect x="190" y="70" width="10" height="10" fill="#c9ddf8"/><rect x="30" y="50" width="10" height="10" fill="#c9ddf8"/><rect x="150" y="30" width="10" height="10" fill="#c9ddf8"/><rect x="120" y="50" width="10" height="10" fill="#c9ddf8"/><rect x="140" y="170" width="10" height="10" fill="#c9ddf8"/><rect x="100" y="90" width="10" height="10" fill="#c9ddf8"/><rect x="230" y="40" width="10" height="10" fill="#c9ddf8"/><rect x="190" y="90" width="10" height="10" fill="#c9ddf8"/><rect x="160" y="110" width="10" height="10" fill="#c9ddf8"/><rect x="30" y="70" width="10" height="10" fill="#c9ddf8"/><rect x="190" y="130" width="10" height="10" fill="#c9ddf8"/><rect x="160" y="150" width="10" height="10" fill="#c9ddf8"/><rect x="80" y="30" width="10" height="10" fill="#c9ddf8"/><rect x="50" y="50" width="10" height="10" fill="#c9ddf8"/><rect x="160" y="170" width="10" height="10" fill="#c9ddf8"/><rect x="230" y="50" width="10" height="10" fill="#c9ddf8"/><rect x="90" y="150" width="10" height="10" fill="#c9ddf8"/><rect x="50" y="70" width="10" height="10" fill="#c9ddf8"/><rect x="140" y="70" width="10" height="10" fill="#c9ddf8"/><rect x="230" y="70" width="10" height="10" fill="#c9ddf8"/><rect x="130" y="120" width="10" height="10" fill="#c9ddf8"/><rect x="100" y="30" width="10" height="10" fill="#c9ddf8"/><rect x="70" y="50" width="10" height="10" fill="#c9ddf8"/><rect x="90" y="170" width="10" height="10" fill="#c9ddf8"/><rect x="140" y="90" width="10" height="10" fill="#c9ddf8"/><rect x="150" y="100" width="10" height="10" fill="#c9ddf8"/><rect x="140" y="130" width="10" height="10" fill="#c9ddf8"/><rect x="110" y="150" width="10" height="10" fill="#c9ddf8"/><rect x="70" y="70" width="10" height="10" fill="#c9ddf8"/><rect x="230" y="130" width="10" height="10" fill="#c9ddf8"/><rect x="190" y="160" width="10" height="10" fill="#c9ddf8"/><rect x="110" y="170" width="10" height="10" fill="#c9ddf8"/><rect x="110" y="40" width="10" height="10" fill="#c9ddf8"/><rect x="180" y="50" width="10" height="10" fill="#c9ddf8"/><rect x="170" y="100" width="10" height="10" fill="#c9ddf8"/><rect x="160" y="130" width="10" height="10" fill="#c9ddf8"/><rect x="130" y="150" width="10" height="10" fill="#c9ddf8"/><rect x="90" y="70" width="10" height="10" fill="#c9ddf8"/><rect x="230" y="10" width="10" height="10" fill="#c9ddf8"/><rect x="140" y="30" width="10" height="10" fill="#c9ddf8"/><rect x="110" y="50" width="10" height="10" fill="#c9ddf8"/><rect x="130" y="40" width="10" height="10" fill="#c9ddf8"/><rect x="90" y="90" width="10" height="10" fill="#c9ddf8"/><rect x="230" y="140" width="10" height="10" fill="#c9ddf8"/><rect x="230" y="30" width="10" height="10" fill="#c9ddf8"/><rect x="130" y="80" width="10" height="10" fill="#c9ddf8"/><rect x="190" y="100" width="10" height="10" fill="#c9ddf8"/><rect x="180" y="130" width="10" height="10" fill="#c9ddf8"/><rect x="150" y="60" width="10" height="10" fill="#c9ddf8"/><rect x="70" y="30" width="10" height="10" fill="#c9ddf8"/><rect x="40" y="50" width="10" height="10" fill="#c9ddf8"/><rect x="190" y="120" width="10" height="10" fill="#c9ddf8"/><rect x="130" y="50" width="10" height="10" fill="#c9ddf8"/><rect x="150" y="40" width="10" height="10" fill="#c9ddf8"/><rect x="180" y="170" width="10" height="10" fill="#c9ddf8"/><rect x="110" y="130" width="10" height="10" fill="#c9ddf8"/><rect x="110" y="110" width="10" height="10" fill="#c9ddf8"/><rect x="40" y="70" width="10" height="10" fill="#c9ddf8"/><rect x="230" y="90" width="10" height="10" fill="#c9ddf8"/><rect x="200" y="150" width="10" height="10" fill="#c9ddf8"/><rect x="170" y="60" width="10" height="10" fill="#c9ddf8"/><rect x="90" y="30" width="10" height="10" fill="#c9ddf8"/><rect x="60" y="50" width="10" height="10" fill="#c9ddf8"/><rect x="130" y="110" width="10" height="10" fill="#c9ddf8"/><rect x="90" y="160" width="10" height="10" fill="#c9ddf8"/><rect x="230" y="100" width="10" height="10" fill="#c9ddf8"/><rect x="220" y="150" width="10" height="10" fill="#c9ddf8"/><rect x="190" y="60" width="10" height="10" fill="#c9ddf8"/><rect x="110" y="30" width="10" height="10" fill="#c9ddf8"/><rect x="110" y="140" width="10" height="10" fill="#c9ddf8"/><rect x="230" y="120" width="10" height="10" fill="#c9ddf8"/><rect x="130" y="170" width="10" height="10" fill="#c9ddf8"/><rect x="190" y="80" width="10" height="10" fill="#c9ddf8"/><rect x="180" y="90" width="10" height="10" fill="#c9ddf8"/><rect x="150" y="110" width="10" height="10" fill="#c9ddf8"/><rect x="30" y="60" width="10" height="10" fill="#c9ddf8"/><rect x="150" y="150" width="10" height="10" fill="#c9ddf8"/><rect x="150" y="170" width="10" height="10" fill="#c9ddf8"/><rect x="110" y="90" width="10" height="10" fill="#c9ddf8"/><rect x="170" y="110" width="10" height="10" fill="#c9ddf8"/><rect x="230" y="20" width="10" height="10" fill="#c9ddf8"/><rect x="170" y="150" width="10" height="10" fill="#c9ddf8"/><rect x="130" y="70" width="10" height="10" fill="#c9ddf8"/><rect x="230" y="60" width="10" height="10" fill="#c9ddf8"/><rect x="150" y="50" width="10" height="10" fill="#c9ddf8"/><rect x="170" y="170" width="10" height="10" fill="#c9ddf8"/><rect x="110" y="100" width="10" height="10" fill="#c9ddf8"/><rect x="130" y="90" width="10" height="10" fill="#c9ddf8"/><rect x="230" y="80" width="10" height="10" fill="#c9ddf8"/><rect x="190" y="110" width="10" height="10" fill="#c9ddf8"/><rect x="130" y="130" width="10" height="10" fill="#c9ddf8"/><rect x="100" y="150" width="10" height="10" fill="#c9ddf8"/><rect x="60" y="70" width="10" height="10" fill="#c9ddf8"/><rect x="190" y="150" width="10" height="10" fill="#c9ddf8"/><rect x="150" y="70" width="10" height="10" fill="#c9ddf8"/><rect x="110" y="120" width="10" height="10" fill="#c9ddf8"/><rect x="70" y="40" width="10" height="10" fill="#c9ddf8"/><rect x="100" y="170" width="10" height="10" fill="#c9ddf8"/><rect x="170" y="50" width="10" height="10" fill="#c9ddf8"/><rect x="190" y="170" width="10" height="10" fill="#c9ddf8"/><rect x="150" y="90" width="10" height="10" fill="#c9ddf8"/><rect x="150" y="130" width="10" height="10" fill="#c9ddf8"/><rect x="80" y="70" width="10" height="10" fill="#c9ddf8"/><g shape-rendering="crispEdges"><rect x="0" y="0" width="250" height="10" fill="#243b57"/><rect x="0" y="10" width="10" height="10" fill="#243b57"/><rect x="180" y="10" width="10" height="10" fill="#243b57"/><rect x="220" y="10" width="10" height="10" fill="#243b57"/><rect x="240" y="10" width="10" height="10" fill="#243b57"/><rect x="0" y="20" width="10" height="10" fill="#243b57"/><rect x="20" y="20" width="150" height="10" fill="#243b57"/><rect x="180" y="20" width="10" height="10" fill="#243b57"/><rect x="200" y="20" width="10" height="10" fill="#243b57"/><rect x="220" y="20" width="10" height="10" fill="#243b57"/><rect x="240" y="20" width="10" height="10" fill="#243b57"/><rect x="0" y="30" width="10" height="10" fill="#243b57"/><rect x="120" y="30" width="10" height="10" fill="#243b57"/><rect x="160" y="30" width="10" height="10" fill="#243b57"/><rect x="200" y="30" width="10" height="10" fill="#243b57"/><rect x="220" y="30" width="10" height="10" fill="#243b57"/><rect x="240" y="30" width="10" height="10" fill="#243b57"/><rect x="0" y="40" width="10" height="10" fill="#243b57"/><rect x="20" y="40" width="50" height="10" fill="#243b57"/><rect x="80" y="40" width="30" height="10" fill="#243b57"/><rect x="120" y="40" width="10" height="10" fill="#243b57"/><rect x="140" y="40" width="10" height="10" fill="#243b57"/><rect x="160" y="40" width="50" height="10" fill="#243b57"/><rect x="220" y="40" width="10" height="10" fill="#243b57"/><rect x="240" y="40" width="10" height="10" fill="#243b57"/><rect x="0" y="50" width="10" height="10" fill="#243b57"/><rect x="20" y="50" width="10" height="10" fill="#243b57"/><rect x="80" y="50" width="10" height="10" fill="#243b57"/><rect x="140" y="50" width="10" height="10" fill="#243b57"/><rect x="160" y="50" width="10" height="10" fill="#243b57"/><rect x="200" y="50" width="10" height="10" fill="#243b57"/><rect x="220" y="50" width="10" height="10" fill="#243b57"/><rect x="240" y="50" width="10" height="10" fill="#243b57"/><rect x="0" y="60" width="10" height="10" fill="#243b57"/><rect x="20" y="60" width="10" height="10" fill="#243b57"/><rect x="40" y="60" width="110" height="10" fill="#243b57"/><rect x="160" y="60" width="10" height="10" fill="#243b57"/><rect x="180" y="60" width="10" height="10" fill="#243b57"/><rect x="200" y="60" width="10" height="10" fill="#243b57"/><rect x="220" y="60" width="10" height="10" fill="#243b57"/><rect x="240" y="60" width="10" height="10" fill="#243b57"/><rect x="0" y="70" width="10" height="10" fill="#243b57"/><rect x="20" y="70" width="10" height="10" fill="#243b57"/><rect x="100" y="70" width="10" height="10" fill="#243b57"/><rect x="160" y="70" width="10" height="10" fill="#243b57"/><rect x="180" y="70" width="10" height="10" fill="#243b57"/><rect x="200" y="70" width="10" height="10" fill="#243b57"/><rect x="220" y="70" width="10" height="10" fill="#243b57"/><rect x="240" y="70" width="10" height="10" fill="#243b57"/><rect x="0" y="80" width="10" height="10" fill="#243b57"/><rect x="20" y="80" width="70" height="10" fill="#243b57"/><rect x="100" y="80" width="30" height="10" fill="#243b57"/><rect x="140" y="80" width="50" height="10" fill="#243b57"/><rect x="200" y="80" width="10" height="10" fill="#243b57"/><rect x="220" y="80" width="10" height="10" fill="#243b57"/><rect x="240" y="80" width="10" height="10" fill="#243b57"/><rect x="0" y="90" width="10" height="10" fill="#243b57"/><rect x="20" y="90" width="10" height="10" fill="#243b57"/><rect x="80" y="90" width="10" height="10" fill="#243b57"/><rect x="120" y="90" width="10" height="10" fill="#243b57"/><rect x="160" y="90" width="10" height="10" fill="#243b57"/><rect x="200" y="90" width="10" height="10" fill="#243b57"/><rect x="220" y="90" width="10" height="10" fill="#243b57"/><rect x="240" y="90" width="10" height="10" fill="#243b57"/><rect x="0" y="100" width="10" height="10" fill="#243b57"/><rect x="20" y="100" width="30" height="10" fill="#243b57"/><rect x="60" y="100" width="10" height="10" fill="#243b57"/><rect x="80" y="100" width="30" height="10" fill="#243b57"/><rect x="120" y="100" width="30" height="10" fill="#243b57"/><rect x="160" y="100" width="10" height="10" fill="#243b57"/><rect x="180" y="100" width="10" height="10" fill="#243b57"/><rect x="200" y="100" width="10" height="10" fill="#243b57"/><rect x="220" y="100" width="10" height="10" fill="#243b57"/><rect x="240" y="100" width="10" height="10" fill="#243b57"/><rect x="0" y="110" width="10" height="10" fill="#243b57"/><rect x="60" y="110" width="10" height="10" fill="#243b57"/><rect x="100" y="110" width="10" height="10" fill="#243b57"/><rect x="120" y="110" width="10" height="10" fill="#243b57"/><rect x="140" y="110" width="10" height="10" fill="#243b57"/><rect x="180" y="110" width="10" height="10" fill="#243b57"/><rect x="200" y="110" width="10" height="10" fill="#243b57"/><rect x="220" y="110" width="10" height="10" fill="#243b57"/><rect x="240" y="110" width="10" height="10" fill="#243b57"/><rect x="0" y="120" width="90" height="10" fill="#243b57"/><rect x="100" y="120" width="10" height="10" fill="#243b57"/><rect x="120" y="120" width="10" height="10" fill="#243b57"/><rect x="140" y="120" width="50" height="10" fill="#243b57"/><rect x="200" y="120" width="10" height="10" fill="#243b57"/><rect x="220" y="120" width="10" height="10" fill="#243b57"/><rect x="240" y="120" width="10" height="10" fill="#243b57"/><rect x="0" y="130" width="10" height="10" fill="#243b57"/><rect x="60" y="130" width="10" height="10" fill="#243b57"/><rect x="100" y="130" width="10" height="10" fill="#243b57"/><rect x="120" y="130" width="10" height="10" fill="#243b57"/><rect x="200" y="130" width="10" height="10" fill="#243b57"/><rect x="240" y="130" width="10" height="10" fill="#243b57"/><rect x="0" y="140" width="10" height="10" fill="#243b57"/><rect x="20" y="140" width="30" height="10" fill="#243b57"/><rect x="60" y="140" width="10" height="10" fill="#243b57"/><rect x="80" y="140" width="30" height="10" fill="#243b57"/><rect x="120" y="140" width="10" height="10" fill="#243b57"/><rect x="140" y="140" width="90" height="10" fill="#243b57"/><rect x="240" y="140" width="10" height="10" fill="#243b57"/><rect x="0" y="150" width="10" height="10" fill="#243b57"/><rect x="40" y="150" width="10" height="10" fill="#243b57"/><rect x="80" y="150" width="10" height="10" fill="#243b57"/><rect x="120" y="150" width="10" height="10" fill="#243b57"/><rect x="180" y="150" width="10" height="10" fill="#243b57"/><rect x="240" y="150" width="10" height="10" fill="#243b57"/><rect x="0" y="160" width="30" height="10" fill="#243b57"/><rect x="40" y="160" width="50" height="10" fill="#243b57"/><rect x="100" y="160" width="90" height="10" fill="#243b57"/><rect x="200" y="160" width="50" height="10" fill="#243b57"/><rect x="0" y="170" width="10" height="10" fill="#243b57"/><rect x="80" y="170" width="10" height="10" fill="#243b57"/><rect x="240" y="170" width="10" height="10" fill="#243b57"/><rect x="0" y="180" width="250" height="10" fill="#243b57"/></g><rect x="230" y="10" width="10" height="10" fill="#b6f0da"/><polyline points="175,155 165,155 155,155 145,155 135,155 135,145 135,135 145,135 155,135 165,135 175,135 185,135 195,135 195,125 195,115 195,105 195,95 185,95 175,95 175,105 175,115 165,115 155,115 155,105 155,95 145,95 135,95 135,85 135,75 145,75 155,75 155,65 155,55 155,45 155,35 145,35 135,35 135,45 135,55 125,55 115,55 115,45 115,35 105,35 95,35 85,35 75,35 75,45 75,55 65,55 55,55 45,55 35,55 35,65 35,75 45,75 55,75 65,75 75,75 85,75 95,75 95,85 95,95 105,95 115,95 115,105 115,115 115,125 115,135 115,145 115,155 105,155 95,155 95,165 95,175 105,175 115,175 125,175 135,175 145,175 155,175 165,175 175,175 185,175 195,175 195,165 195,155 205,155 215,155 225,155 235,155 235,145 235,135 235,125 235,115 235,105 235,95 235,85 235,75 235,65 235,55 235,45 235,35 235,25 235,15" fill="none" stroke="#1769e0" stroke-width="3" stroke-linejoin="round" stroke-linecap="round" stroke-opacity="0.85"/><polygon points="178.5,155 171.5,151.5 171.5,158.5" fill="#1e88e5"/></svg>
