<svg xmlns="http://www.w3.org/2000/svg" viewBox="0 0 150 110" width="300" height="220"><rect width="150" height="110" fill="#ffffff"/><g shape-rendering="crispEdges"><rect x="0" y="0" width="150" height="10" fill="#243b57"/><rect x="0" y="10" width="10" height="10" fill="#243b57"/><rect x="20" y="10" width="10" height="10" fill="#243b57"/><rect x="80" y="10" width="70" height="10" fill="#243b57"/><rect x="0" y="20" width="10" height="10" fill="#243b57"/><rect x="20" y="20" width="10" height="10" fill="#243b57"/><rect x="40" y="20" width="30" height="10" fill="#243b57"/><rect x="80" y="20" width="70" height="10" fill="#243b57"/><rect x="0" y="30" width="10" height="10" fill="#243b57"/><rect x="20" y="30" width="10" height="10" fill="#243b57"/><rect x="60" y="30" width="10" height="10" fill="#243b57"/><rect x="80" y="30" width="70" height="10" fill="#243b57"/><rect x="0" y="40" width="10" height="10" fill="#243b57"/><rect x="20" y="40" width="30" height="10" fill="#243b57"/><rect x="60" y="40" width="10" height="10" fill="#243b57"/><rect x="80" y="40" width="70" height="10" fill="#243b57"/><rect x="0" y="50" width="10" height="10" fill="#243b57"/><rect x="60" y="50" width="10" height="10" fill="#243b57"/><rect x="120" y="50" width="30" height="10" fill="#243b57"/><rect x="0" y="60" width="110" height="10" fill="#243b57"/><rect x="120" y="60" width="30" height="10" fill="#243b57"/><rect x="0" y="70" width="10" height="10" fill="#243b57"/><rect x="40" y="70" width="10" height="10" fill="#243b57"/><rect x="80" y="70" width="30" height="10" fill="#243b57"/><rect x="140" y="70" width="10" height="10" fill="#243b57"/><rect x="0" y="80" width="10" height="10" fill="#243b57"/><rect x="20" y="80" width="10" height="10" fill="#243b57"/><rect x="40" y="80" width="10" height="10" fill="#243b57"/><rect x="60" y="80" width="10" height="10" fill="#243b57"/><rect x="80" y="80" width="50" height="10" fill="#243b57"/><rect x="140" y="80" width="10" height="10" fill="#243b57"/><rect x="0" y="90" width="10" height="10" fill="#243b57"/><rect x="20" y="90" width="10" height="10" fill="#243b57"/><rect x="60" y="90" width="10" height="10" fill="#243b57"/><rect x="140" y="90" width="10" height="10" fill="#243b57"/><rect x="0" y="100" width="150" height="10" fill="#243b57"/></g><rect x="10" y="10" width="10" height="10" fill="#b6f0da"/><polygon points="18.5,95 11.5,91.5 11.5,98.5" fill="#1e88e5"/></svg>
